<svg xmlns="http://www.w3.org/2000/svg" viewBox="0 0 50 50"><path d="M25 1C19.484375 1 15 5.484375 15 11L15 13L7.09375 13L2.875 50L47.125 50L42.90625 13L37 13L37 19C37 20.65625 35.65625 22 34 22C33.777344 22 33.550781 21.984375 33.34375 21.9375C32.003906 21.636719 31 20.433594 31 19C31 17.699219 31.839844 16.601563 33 16.1875L33 19C33 19.550781 33.445313 20 34 20C34.554688 20 35 19.550781 35 19L35 11C35 5.484375 30.515625 1 25 1 Z M 25 3C29.410156 3 33 6.589844 33 11L33 13L19 13L19 19C19 20.65625 17.65625 22 16 22C15.777344 22 15.550781 21.984375 15.34375 21.9375C14 21.636719 13 20.433594 13 19C13 17.699219 13.839844 16.601563 15 16.1875L15 19C15 19.550781 15.449219 20 16 20C16.550781 20 17 19.550781 17 19L17 11C17 6.589844 20.589844 3 25 3Z"/></svg>